REM DIRINDEX 1\2\5,1\2\6,1\2\7,1\2\8,1\3\9,1\3\10,1\3\11,1\4\12,1\4\13,1\4\14,1\4\15,1\4\16
REM DIRNAME cjc034,folder01,folder02,folder03,folder04,folder05,folder06,folder07,folder08,folder09,folder10,folder11,folder12,folder13,folder14,folder15
TITLE ""
FILE "1200_sec02_0392_0399.mp3" MP3
  TRACK 01 AUDIO
    TITLE "0:"
    INDEX 01 00:00:00
  TRACK 02 AUDIO
    TITLE "12:cjc034_05208"
    INDEX 01 00:00:17
  TRACK 03 AUDIO
    TITLE "0:"
    INDEX 01 00:01:15
  TRACK 04 AUDIO
    TITLE "13:cjc034_05209"
    INDEX 01 00:01:50
  TRACK 05 AUDIO
    TITLE "0:"
    INDEX 01 00:03:06
  TRACK 06 AUDIO
    TITLE "14:cjc034_05210"
    INDEX 01 00:03:39
  TRACK 07 AUDIO
    TITLE "0:"
    INDEX 01 00:04:38
  TRACK 08 AUDIO
    TITLE "15:cjc034_05211"
    INDEX 01 00:04:72
  TRACK 09 AUDIO
    TITLE "0:"
    INDEX 01 00:09:10
  TRACK 10 AUDIO
    TITLE "12:cjc034_05212"
    INDEX 01 00:10:49
  TRACK 11 AUDIO
    TITLE "0:"
    INDEX 01 00:11:58
  TRACK 12 AUDIO
    TITLE "13:cjc034_05213"
    INDEX 01 00:12:18
  TRACK 13 AUDIO
    TITLE "0:"
    INDEX 01 00:15:13
  TRACK 14 AUDIO
    TITLE "14:cjc034_05214"
    INDEX 01 00:15:48
  TRACK 15 AUDIO
    TITLE "0:"
    INDEX 01 00:16:57
  TRACK 16 AUDIO
    TITLE "15:cjc034_05215"
    INDEX 01 00:17:16
  TRACK 17 AUDIO
    TITLE "0:"
    INDEX 01 00:20:16
  TRACK 18 AUDIO
    TITLE "12:cjc034_05216"
    INDEX 01 00:21:51
  TRACK 19 AUDIO
    TITLE "0:"
    INDEX 01 00:22:60
  TRACK 20 AUDIO
    TITLE "13:cjc034_05217"
    INDEX 01 00:23:18
  TRACK 21 AUDIO
    TITLE "0:"
    INDEX 01 00:25:37
  TRACK 22 AUDIO
    TITLE "14:cjc034_05218"
    INDEX 01 00:25:70
  TRACK 23 AUDIO
    TITLE "0:"
    INDEX 01 00:27:06
  TRACK 24 AUDIO
    TITLE "15:cjc034_05219"
    INDEX 01 00:27:39
  TRACK 25 AUDIO
    TITLE "0:"
    INDEX 01 00:30:34
  TRACK 26 AUDIO
    TITLE "12:cjc034_05220"
    INDEX 01 00:31:71
  TRACK 27 AUDIO
    TITLE "0:"
    INDEX 01 00:32:70
  TRACK 28 AUDIO
    TITLE "13:cjc034_05221"
    INDEX 01 00:33:30
  TRACK 29 AUDIO
    TITLE "0:"
    INDEX 01 00:35:43
  TRACK 30 AUDIO
    TITLE "14:cjc034_05222"
    INDEX 01 00:36:05
  TRACK 31 AUDIO
    TITLE "0:"
    INDEX 01 00:37:08
  TRACK 32 AUDIO
    TITLE "15:cjc034_05223"
    INDEX 01 00:37:42
  TRACK 33 AUDIO
    TITLE "0:"
    INDEX 01 00:41:42
  TRACK 34 AUDIO
    TITLE "12:cjc034_05224"
    INDEX 01 00:43:01
  TRACK 35 AUDIO
    TITLE "0:"
    INDEX 01 00:44:12
  TRACK 36 AUDIO
    TITLE "13:cjc034_05225"
    INDEX 01 00:44:46
  TRACK 37 AUDIO
    TITLE "0:"
    INDEX 01 00:48:57
  TRACK 38 AUDIO
    TITLE "14:cjc034_05226"
    INDEX 01 00:49:16
  TRACK 39 AUDIO
    TITLE "0:"
    INDEX 01 00:50:25
  TRACK 40 AUDIO
    TITLE "15:cjc034_05227"
    INDEX 01 00:50:60
  TRACK 41 AUDIO
    TITLE "0:"
    INDEX 01 00:55:12
  TRACK 42 AUDIO
    TITLE "12:cjc034_05228"
    INDEX 01 00:56:43
  TRACK 43 AUDIO
    TITLE "0:"
    INDEX 01 00:57:52
  TRACK 44 AUDIO
    TITLE "13:cjc034_05229"
    INDEX 01 00:58:09
  TRACK 45 AUDIO
    TITLE "0:"
    INDEX 01 01:00:37
  TRACK 46 AUDIO
    TITLE "14:cjc034_05230"
    INDEX 01 01:00:68
  TRACK 47 AUDIO
    TITLE "0:"
    INDEX 01 01:02:01
  TRACK 48 AUDIO
    TITLE "15:cjc034_05231"
    INDEX 01 01:02:36
  TRACK 49 AUDIO
    TITLE "0:"
    INDEX 01 01:06:34
  TRACK 50 AUDIO
    TITLE "12:cjc034_05232"
    INDEX 01 01:07:68
  TRACK 51 AUDIO
    TITLE "0:"
    INDEX 01 01:09:30
  TRACK 52 AUDIO
    TITLE "13:cjc034_05233"
    INDEX 01 01:09:63
  TRACK 53 AUDIO
    TITLE "0:"
    INDEX 01 01:10:69
  TRACK 54 AUDIO
    TITLE "14:cjc034_05234"
    INDEX 01 01:11:29
  TRACK 55 AUDIO
    TITLE "0:"
    INDEX 01 01:12:66
  TRACK 56 AUDIO
    TITLE "15:cjc034_05235"
    INDEX 01 01:13:22
  TRACK 57 AUDIO
    TITLE "0:"
    INDEX 01 01:17:43
  TRACK 58 AUDIO
    TITLE "12:cjc034_05236"
    INDEX 01 01:19:03
  TRACK 59 AUDIO
    TITLE "0:"
    INDEX 01 01:20:10
  TRACK 60 AUDIO
    TITLE "13:cjc034_05237"
    INDEX 01 01:20:44
  TRACK 61 AUDIO
    TITLE "0:"
    INDEX 01 01:22:42
  TRACK 62 AUDIO
    TITLE "14:cjc034_05238"
    INDEX 01 01:22:74
  TRACK 63 AUDIO
    TITLE "0:"
    INDEX 01 01:24:04
  TRACK 64 AUDIO
    TITLE "15:cjc034_05239"
    INDEX 01 01:24:37
  TRACK 65 AUDIO
    TITLE "0:"
    INDEX 01 01:27:61
